<?xml version="1.0" standalone="no"?>
<!DOCTYPE svg PUBLIC "-//W3C//DTD SVG 20010904//EN"
 "http://www.w3.org/TR/2001/REC-SVG-20010904/DTD/svg10.dtd">
<svg version="1.0" xmlns="http://www.w3.org/2000/svg"
 width="512.000000pt" height="512.000000pt" viewBox="0 0 512.000000 512.000000"
 preserveAspectRatio="xMidYMid meet">

<g transform="translate(0.000000,512.000000) scale(0.100000,-0.100000)"
fill="#007AB5" stroke="#007AB5">
<path d="M945 5113 c-56 -8 -170 -45 -230 -75 -255 -128 -416 -361 -444 -647
-15 -142 -15 -3520 0 -3662 33 -335 245 -592 574 -700 68 -22 85 -23 494 -26
369 -4 430 -2 466 11 165 63 171 292 10 367 -37 17 -71 19 -401 19 -200 0
-385 5 -414 10 -151 29 -261 124 -311 268 -18 53 -19 114 -19 1882 0 1768 1
1829 19 1882 50 144 160 239 311 268 33 6 502 10 1295 10 793 0 1262 -4 1295
-10 152 -29 272 -134 315 -278 12 -39 15 -159 15 -679 l0 -633 -1345 0 c-1485
0 -1383 4 -1453 -63 -20 -20 -39 -52 -48 -84 -14 -48 -14 -58 0 -107 18 -62
70 -116 132 -136 31 -11 327 -12 1501 -7 1597 6 1486 2 1545 64 15 15 37 51
50 78 l23 50 3 684 c2 418 -1 724 -7 786 -34 339 -242 594 -576 706 l-70 23
-1350 2 c-742 1 -1363 -1 -1380 -3z"/>
<path d="M1190 3904 c-56 -24 -99 -73 -116 -131 -14 -48 -14 -58 0 -106 9 -32
28 -64 48 -84 69 -67 -3 -63 1175 -63 1018 0 1070 1 1108 19 157 73 157 289 0
362 -38 18 -89 19 -1110 18 -933 0 -1074 -2 -1105 -15z"/>
<path d="M4101 2380 c-156 -42 -153 -40 -800 -684 -377 -376 -599 -604 -608
-626 -15 -35 -222 -708 -248 -808 -35 -131 58 -261 186 -262 51 0 866 227 914
255 22 13 301 286 621 607 525 527 584 590 616 653 48 94 69 180 69 285 0 208
-97 389 -269 502 -97 63 -181 89 -307 94 -79 3 -116 0 -174 -16z m264 -417
c103 -72 112 -227 18 -315 l-29 -28 -139 140 -140 140 36 36 c70 70 175 81
254 27z m-658 -991 l-368 -368 -200 -55 c-115 -33 -199 -51 -199 -45 0 6 25
92 55 191 l55 180 372 372 373 373 140 -140 140 -140 -368 -368z"/>
<path d="M1190 2304 c-56 -24 -99 -73 -116 -131 -14 -48 -14 -58 0 -106 9 -32
28 -64 48 -84 67 -65 40 -63 768 -63 722 0 701 -2 763 58 43 41 60 81 60 142
0 84 -45 151 -125 184 -55 24 -1345 23 -1398 0z"/>
</g>
</svg>
